<svg width="17" height="18" viewBox="0 0 17 18" fill="none" xmlns="http://www.w3.org/2000/svg">
<path d="M16.4919 17.9983L13.5194 13.6921C14.7373 12.5936 15.7322 11.0476 16.0746 9.17871C16.8677 4.85077 13.9754 0.660887 9.6475 -0.132128C5.31955 -0.925144 1.11165 2.06544 0.318634 6.39338C-0.474382 10.7213 2.41783 14.9112 6.74578 15.7042C8.51631 16.0286 10.2966 15.7449 11.8719 14.9152L14.8445 19.2215L16.4919 17.9983ZM7.10624 13.737C3.86028 13.1422 1.69112 9.99981 2.28588 6.75384C2.88064 3.50788 6.02305 1.33872 9.26901 1.93348C12.515 2.52824 14.6841 5.67065 14.0894 8.91661C13.4946 12.1626 10.3522 14.3317 7.10624 13.737Z" fill="black"/>
</svg>
